<svg width="273" height="69" viewBox="0 0 273 69" fill="none" xmlns="http://www.w3.org/2000/svg">
<path d="M28.799 2.184C33.023 2.184 36.383 2.824 38.879 4.10399C41.887 5.64 44.191 7.752 45.791 10.44C47.455 13.128 48.287 16.136 48.287 19.464C48.287 22.6 47.455 25.512 45.791 28.2C44.127 30.824 41.855 32.904 38.975 34.44C42.431 35.656 45.343 37.768 47.711 40.776C50.079 43.784 51.263 47.176 51.263 50.952C51.263 54.28 50.399 57.352 48.671 60.168C47.007 62.92 44.767 65.096 41.951 66.696C40.543 67.464 38.975 68.04 37.247 68.424C35.519 68.808 33.215 69 30.335 69H0.766997V2.184H28.799ZM127.845 69H64.8695L96.3575 0.743998L127.845 69ZM70.4375 65.448H122.277L96.3575 9.192L70.4375 65.448ZM197.804 52.008V69H146.924V2.184H150.476V52.008H197.804ZM272.371 69H209.395L240.883 0.743998L272.371 69ZM214.963 65.448H266.803L240.883 9.192L214.963 65.448Z" fill="#1B1B1B"/>
</svg>
