<svg width="214" height="68" viewBox="0 0 214 68" fill="none" xmlns="http://www.w3.org/2000/svg">
<path d="M0.0320003 6.48C1.888 2.64 5.376 0.719999 10.496 0.719999C15.68 0.719999 19.456 2.224 21.824 5.232C24.256 8.176 25.472 13.072 25.472 19.92V54.192L48.8 2.736H60.224L30.368 66H7.904L5.024 19.92C4.832 16.528 4.256 13.68 3.296 11.376C2.4 9.072 1.312 7.44 0.0320003 6.48ZM98.8453 51.216C100.061 52.752 100.669 54.768 100.669 57.264C100.669 60.72 99.3893 63.376 96.8292 65.232C94.2692 67.024 90.9733 67.92 86.9413 67.92C84.6372 67.92 81.7252 67.664 78.2053 67.152C71.2932 66.064 66.7812 65.52 64.6692 65.52C62.5572 65.52 61.0852 65.584 60.2532 65.712C59.4212 65.776 58.3332 65.872 56.9892 66L68.7972 2.64H110.173C110.173 6.544 109.213 9.52 107.293 11.568C105.437 13.616 102.653 14.64 98.9413 14.64C95.2293 14.64 91.4853 13.776 87.7092 12.048L84.7333 28.848H101.821C101.821 32.24 100.989 34.896 99.3253 36.816C97.6613 38.672 95.4212 39.6 92.6052 39.6C89.8533 39.6 87.6133 39.28 85.8853 38.64C84.1572 38 83.1972 37.584 83.0052 37.392L79.5493 55.536C81.0853 55.728 83.2933 55.824 86.1732 55.824C91.1013 55.824 95.3253 54.288 98.8453 51.216ZM151.078 51.216C152.293 52.752 152.901 55.024 152.901 58.032C152.901 60.976 151.749 63.376 149.445 65.232C147.205 67.024 144.101 67.92 140.133 67.92C137.829 67.92 134.885 67.664 131.301 67.152C124.261 66.064 119.717 65.52 117.669 65.52C115.685 65.52 114.277 65.584 113.445 65.712C112.613 65.776 111.525 65.872 110.181 66L121.797 2.64H142.821L133.221 55.44C134.053 55.568 134.853 55.632 135.621 55.632H138.021C143.397 55.632 147.749 54.16 151.078 51.216ZM202.909 67.92C194.717 67.92 190.237 62.096 189.469 50.448H172.957C171.677 53.392 170.589 56.144 169.693 58.704L167.197 66H153.757L183.997 2.64H204.637L208.669 49.296C209.309 56.016 210.909 60.368 213.469 62.352C211.613 66.064 208.093 67.92 202.909 67.92ZM175.933 43.44H189.181L188.029 18.768V16.176L181.213 31.248L175.933 43.44Z" fill="#005005"/>
<path d="M0.0320003 6.48C1.888 2.64 5.376 0.719999 10.496 0.719999C15.68 0.719999 19.456 2.224 21.824 5.232C24.256 8.176 25.472 13.072 25.472 19.92V54.192L48.8 2.736H60.224L30.368 66H7.904L5.024 19.92C4.832 16.528 4.256 13.68 3.296 11.376C2.4 9.072 1.312 7.44 0.0320003 6.48ZM98.8453 51.216C100.061 52.752 100.669 54.768 100.669 57.264C100.669 60.72 99.3893 63.376 96.8292 65.232C94.2692 67.024 90.9733 67.92 86.9413 67.92C84.6372 67.92 81.7252 67.664 78.2053 67.152C71.2932 66.064 66.7812 65.52 64.6692 65.52C62.5572 65.52 61.0852 65.584 60.2532 65.712C59.4212 65.776 58.3332 65.872 56.9892 66L68.7972 2.64H110.173C110.173 6.544 109.213 9.52 107.293 11.568C105.437 13.616 102.653 14.64 98.9413 14.64C95.2293 14.64 91.4853 13.776 87.7092 12.048L84.7333 28.848H101.821C101.821 32.24 100.989 34.896 99.3253 36.816C97.6613 38.672 95.4212 39.6 92.6052 39.6C89.8533 39.6 87.6133 39.28 85.8853 38.64C84.1572 38 83.1972 37.584 83.0052 37.392L79.5493 55.536C81.0853 55.728 83.2933 55.824 86.1732 55.824C91.1013 55.824 95.3253 54.288 98.8453 51.216ZM151.078 51.216C152.293 52.752 152.901 55.024 152.901 58.032C152.901 60.976 151.749 63.376 149.445 65.232C147.205 67.024 144.101 67.92 140.133 67.92C137.829 67.92 134.885 67.664 131.301 67.152C124.261 66.064 119.717 65.52 117.669 65.52C115.685 65.52 114.277 65.584 113.445 65.712C112.613 65.776 111.525 65.872 110.181 66L121.797 2.64H142.821L133.221 55.44C134.053 55.568 134.853 55.632 135.621 55.632H138.021C143.397 55.632 147.749 54.16 151.078 51.216ZM202.909 67.92C194.717 67.92 190.237 62.096 189.469 50.448H172.957C171.677 53.392 170.589 56.144 169.693 58.704L167.197 66H153.757L183.997 2.64H204.637L208.669 49.296C209.309 56.016 210.909 60.368 213.469 62.352C211.613 66.064 208.093 67.92 202.909 67.92ZM175.933 43.44H189.181L188.029 18.768V16.176L181.213 31.248L175.933 43.44Z" fill="black" fill-opacity="0.2"/>
</svg>
